Coordinates
version=1
nRows=25
nColumns=23
inDegrees=yes

Units are S.I. units (second, meters, Newtons, ...)
If the header above contains a line with 'inDegrees', this indicates whether rotational values are in degrees (yes) or radians (no).

endheader
time	pelvis_tilt	pelvis_list	pelvis_rotation	pelvis_tx	pelvis_ty	pelvis_tz	hip_flexion_r	hip_adduction_r	hip_rotation_r	knee_angle_r	knee_angle_r_beta	ankle_angle_r	subtalar_angle_r	mtp_angle_r	hip_flexion_l	hip_adduction_l	hip_rotation_l	knee_angle_l	knee_angle_l_beta	ankle_angle_l	subtalar_angle_l	mtp_angle_l
     22.50000000	    -12.20333373	     -4.33967840	      2.71479584	      2.34944956	      0.92643035	      1.04665146	     57.70660708	      1.91213549	     -4.81839612	     86.92491044	      1.51712589	     -3.44580674	    -19.95743596	      0.00000000	    -17.93134050	     -2.72373002	     -9.48271546	     11.38361796	      0.19868161	    -13.35334262	      5.65447555	      0.00000000
     22.50666667	    -13.01132861	     -4.33430653	      2.40554277	      2.35159301	      0.92933888	      1.04699292	     58.45117549	      2.11842218	     -4.78941558	     81.78506852	      1.42741872	     -3.19897222	    -20.07572617	      0.00000000	    -18.22748127	     -2.96395021	    -10.64206587	     12.69936545	      0.22164574	    -14.25791916	      5.03903090	      0.00000000
     22.51333333	    -13.68967391	     -4.18988207	      2.12206671	      2.35335470	      0.93190964	      1.04754927	     58.85234844	      2.27165178	     -4.65679587	     76.41863566	      1.33375680	     -3.20662279	    -20.46434003	      0.00000000	    -18.26873661	     -3.22759594	    -12.00687257	     14.96083503	      0.26111583	    -14.35988877	      4.82174367	      0.00000000
     22.52000000	    -14.19144699	     -3.78382961	      1.76845355	      2.35487132	      0.93411921	      1.04813463	     58.90851159	      2.24191412	     -4.39965637	     70.96075754	      1.23849886	     -2.82168290	    -19.79452960	      0.00000000	    -18.47196531	     -3.11674032	    -12.70368599	     17.36989103	      0.30316179	    -14.50400573	      3.54530525	      0.00000000
     22.52666667	    -14.69852161	     -3.44324817	      1.64849734	      2.35596287	      0.93586761	      1.04867359	     58.72706132	      2.07062305	     -4.38136024	     65.22374266	      1.13836906	     -2.68461914	    -19.29153566	      0.00000000	    -18.18563722	     -3.35152724	    -13.43200691	     20.82966714	      0.36354627	    -13.94891250	      2.91536734	      0.00000000
     22.53333333	    -14.85250272	     -2.85431809	      1.36604146	      2.35692318	      0.93744065	      1.04936472	     58.02115080	      1.85920080	     -4.20519235	     59.40847139	      1.03687343	     -2.43247439	    -17.99993042	      0.00000000	    -18.36311854	     -3.11055896	    -13.48322227	     24.14566805	      0.42142141	    -13.65960056	      1.23391757	      0.00000000
     22.54000000	    -14.91677619	     -2.27177737	      1.32147801	      2.35763359	      0.93868352	      1.04983816	     56.99951525	      1.42251794	     -4.32422392	     53.43562843	      0.93262765	     -2.26954551	    -16.38334585	      0.00000000	    -18.34524140	     -2.95466166	    -13.06192698	     27.99095916	      0.48853440	    -13.30164328	     -0.39436658	      0.00000000
     22.54666667	    -14.80617941	     -1.63781388	      1.29133122	      2.35822462	      0.93962495	      1.05032149	     55.62507712	      0.95479131	     -4.56572288	     47.40389169	      0.82735399	     -2.15681822	    -14.25975365	      0.00000000	    -18.39307003	     -2.67631340	    -12.30003369	     32.03004933	      0.55902982	    -12.91034971	     -2.10871691	      0.00000000
     22.55333333	    -14.47692870	     -0.91098809	      1.21263804	      2.35868280	      0.94013712	      1.05077514	     53.93553500	      0.53472114	     -4.69012201	     41.46603915	      0.72371891	     -2.22463216	    -11.92380851	      0.00000000	    -18.56227661	     -2.19849599	    -11.32170609	     36.26935974	      0.63301975	    -12.55310390	     -3.97876367	      0.00000000
     22.56000000	    -13.96096507	     -0.27071436	      1.27877328	      2.35918192	      0.94044373	      1.05102134	     51.90786833	      0.06191848	     -5.13042632	     35.65575423	      0.62231031	     -2.31665160	     -9.31191474	      0.00000000	    -18.79412438	     -1.77635916	    -10.08394657	     40.67145352	      0.70985078	    -12.36258449	     -5.80150383	      0.00000000
     22.56666667	    -13.29770609	      0.37123788	      1.28541753	      2.35961777	      0.94032662	      1.05128302	     49.70802983	     -0.26061298	     -5.39937409	     30.17630251	      0.52667583	     -2.54394473	     -6.72756783	      0.00000000	    -19.07514577	     -1.25575882	     -8.81439314	     45.22150533	      0.78926416	    -12.20316292	     -7.53855113	      0.00000000
     22.57333333	    -12.45905211	      0.92146798	      1.29141799	      2.36008662	      0.93988993	      1.05146849	     47.33034273	     -0.47819409	     -5.67732234	     25.16287683	      0.43917505	     -2.81573809	     -4.36079272	      0.00000000	    -19.46267512	     -0.78377711	     -7.60064317	     49.84632120	      0.86998243	    -12.16161282	     -9.10589724	      0.00000000
     22.58000000	    -11.62101624	      1.45073885	      1.20792706	      2.36044275	      0.93884064	      1.05154680	     45.10598500	     -0.59381509	     -5.71656258	     20.89251611	      0.36464320	     -3.20016841	     -2.39400147	      0.00000000	    -19.73647696	     -0.22861712	     -6.49768919	     54.60078553	      0.95296348	    -12.19178645	    -10.53755581	      0.00000000
     22.58666667	    -10.70621197	      1.87517705	      1.06722190	      2.36079231	      0.93745162	      1.05168111	     42.96583078	     -0.60985628	     -5.74404408	     17.48062686	      0.30509449	     -3.50051602	     -0.89539653	      0.00000000	    -20.02077482	      0.24907656	     -5.58115308	     59.36854586	      1.03617660	    -12.36488836	    -11.78470673	      0.00000000
     22.59333333	     -9.60090876	      1.98677653	      0.82130759	      2.36116149	      0.93591059	      1.05181815	     40.70233285	     -0.30861183	     -5.78013456	     14.76964874	      0.25777900	     -4.06100689	     -0.17595313	      0.00000000	    -20.46002299	      0.41047457	     -5.03689392	     64.10765978	      1.11888974	    -12.80084425	    -12.87695919	      0.00000000
     22.60000000	     -8.71620640	      2.07262367	      0.49397444	      2.36138758	      0.93376404	      1.05193551	     38.95128216	     -0.00482363	     -5.79605093	     13.13370664	      0.22922642	     -4.54287939	      0.19021913	      0.00000000	    -20.54520052	      0.61026174	     -4.65935272	     68.88879843	      1.20233635	    -13.19595745	    -13.88996065	      0.00000000
     22.60666667	     -7.89499859	      2.34978648	     -0.23984568	      2.36143065	      0.93102762	      1.05250281	     37.84368107	      0.25656224	     -5.59281089	     13.10062395	      0.22864902	     -4.62852123	      0.47991322	      0.00000000	    -20.53824638	      1.11913309	     -4.75582970	     73.50225140	      1.28285629	    -13.83554170	    -14.39715556	      0.00000000
     22.61333333	     -7.33206731	      1.83424350	     -0.30908825	      2.36161540	      0.92809386	      1.05223809	     36.55750077	      0.82202505	     -6.33946096	     12.87373104	      0.22468899	     -5.18125050	      0.29876372	      0.00000000	    -20.02058483	      0.56782039	     -4.54669504	     78.41452216	      1.36859159	    -14.05148296	    -15.73151687	      0.00000000
     22.62000000	     -6.65765670	      1.50841948	     -0.84678171	      2.36174573	      0.92482671	      1.05251878	     35.52746866	      1.44356724	     -6.47812276	     13.81581710	      0.24113150	     -5.48927765	     -0.07276247	      0.00000000	    -19.64777009	      0.29354274	     -4.86236635	     83.03855645	      1.44929622	    -14.34193812	    -16.53687953	      0.00000000
     22.62666667	     -6.11082620	      1.04701247	     -1.34980478	      2.36187940	      0.92109175	      1.05273832	     34.68414381	      2.12799732	     -6.62806321	     15.34412027	      0.26780542	     -5.76025557	     -0.70177128	      0.00000000	    -19.05227545	     -0.20754229	     -5.27478655	     87.61797062	      1.52922207	    -14.56423839	    -17.33361069	      0.00000000
     22.63333333	     -6.02729586	      0.81503546	     -1.79823565	      2.36178621	      0.91652650	      1.05287456	     34.53025328	      2.55404754	     -6.47992044	     17.63420478	      0.30777493	     -5.59916330	     -1.53661829	      0.00000000	    -17.76110677	     -0.47354208	     -5.54433373	     92.21511573	      1.60945739	    -14.73839557	    -18.05864251	      0.00000000
     22.64000000	     -5.77593170	      0.36353141	     -2.30198835	      2.36178128	      0.91183067	      1.05311310	     34.10638597	      3.23184652	     -6.18121537	     20.14700899	      0.35163164	     -5.23007444	     -2.59157717	      0.00000000	    -16.62442614	     -1.08799364	     -6.00579505	     96.64884148	      1.68684050	    -14.72365084	    -18.75661449	      0.00000000
     22.64666667	     -5.90259101	      0.13275204	     -2.84289980	      2.36150102	      0.90643595	      1.05340727	     34.14464221	      3.80116924	     -5.38884896	     23.02320670	      0.40183076	     -4.58924934	     -3.90956516	      0.00000000	    -14.88998547	     -1.49398334	     -6.40526319	    101.04677573	      1.76359894	    -14.53850334	    -19.34431990	      0.00000000
     22.65333333	     -6.01450931	     -0.17915449	     -3.35335185	      2.36104868	      0.90093595	      1.05377641	     34.06107612	      4.51638682	     -4.43435536	     25.95903444	      0.45307062	     -3.47397361	     -5.48872456	      0.00000000	    -13.03210211	     -2.10189236	     -6.77179826	    105.33722417	      1.83848139	    -14.25891162	    -19.75584252	      0.00000000
     22.66000000	     -6.16766723	     -0.53856998	     -3.85722527	      2.36041435	      0.89537868	      1.05428521	     33.92208193	      5.34889437	     -3.40607823	     28.91580359	      0.50467598	     -1.92807571	     -7.18650536	      0.00000000	    -10.98366940	     -2.88322718	     -7.08187405	    109.48413758	      1.91085868	    -13.87732431	    -20.07157721	      0.00000000
